<?xml version="1.0" standalone="no"?>
<!DOCTYPE svg PUBLIC "-//W3C//DTD SVG 20010904//EN"
 "http://www.w3.org/TR/2001/REC-SVG-20010904/DTD/svg10.dtd">
<svg version="1.0" xmlns="http://www.w3.org/2000/svg"
 width="1024.000000pt" height="1024.000000pt" viewBox="0 0 1024.000000 1024.000000"
 preserveAspectRatio="xMidYMid meet">

<g transform="translate(0.000000,1024.000000) scale(0.100000,-0.100000)"
fill="#000000" stroke="none">
<path d="M5125 8615 c-27 -8 -53 -14 -56 -15 -3 0 -32 -17 -65 -38 -32 -20
-75 -39 -94 -41 -19 -1 -105 -21 -192 -42 -457 -115 -832 -355 -1130 -724
-147 -182 -323 -526 -373 -727 -16 -64 -18 -66 -53 -73 -19 -4 -214 -5 -433
-3 l-397 3 -13 38 c-17 52 -83 124 -135 149 -24 11 -44 24 -44 29 0 5 -24 9
-53 9 -86 0 -171 -66 -212 -163 -22 -53 -20 -149 5 -197 54 -106 125 -147 240
-137 l69 6 30 -53 c35 -62 95 -117 148 -136 28 -10 133 -15 395 -19 196 -3
358 -8 361 -11 2 -3 7 -46 9 -96 l5 -92 -51 -6 c-78 -9 -361 -7 -453 4 -96 11
-147 34 -217 99 -62 57 -122 95 -137 86 -13 -9 -4 -66 16 -106 21 -40 119
-124 178 -153 72 -36 163 -45 432 -46 127 0 235 -4 241 -8 6 -4 19 -47 28 -96
10 -48 20 -94 22 -101 3 -7 -5 -15 -18 -18 -13 -4 -202 -7 -421 -7 -232 -1
-397 -6 -397 -11 0 -5 -7 -9 -15 -9 -8 0 -15 7 -15 15 0 30 -39 90 -87 136
-69 66 -95 79 -153 79 -120 0 -212 -84 -241 -219 -13 -61 9 -152 51 -209 32
-45 112 -90 172 -98 104 -14 224 56 277 161 l23 45 434 -2 435 -3 38 -95 c167
-426 505 -809 920 -1044 276 -156 493 -221 899 -272 129 -15 137 -15 305 6
283 36 469 90 703 205 232 115 345 195 533 378 181 177 300 342 411 572 37 77
76 166 86 198 l18 57 412 0 c226 0 425 3 442 6 30 6 32 4 55 -47 79 -177 285
-222 417 -90 77 77 110 195 76 275 -17 41 -42 61 -31 25 6 -20 2 -19 -27 12
-18 20 -60 56 -93 80 -33 24 -63 48 -67 54 -12 17 -92 8 -141 -15 -67 -31
-116 -92 -141 -172 -5 -17 -35 -18 -441 -18 -239 0 -435 3 -435 8 0 4 12 55
27 115 l27 107 240 0 c267 1 367 10 423 39 57 29 143 126 143 160 0 12 -3 12
-17 -1 -33 -29 -118 -66 -176 -77 -32 -6 -180 -11 -330 -11 -256 -1 -272 0
-270 17 1 10 3 64 5 121 1 57 6 105 10 108 4 3 8 -1 8 -9 0 -8 7 -18 16 -21
27 -10 575 -6 644 5 123 20 234 91 272 174 8 17 17 24 27 20 42 -17 111 -17
159 -1 94 32 183 158 182 260 0 17 -9 49 -19 71 -19 40 -19 40 -20 10 l-1 -30
-24 36 c-30 44 -125 125 -168 143 -98 41 -240 -57 -281 -195 -7 -21 -144 -29
-535 -29 l-304 0 7 -42 c4 -24 12 -49 18 -56 9 -11 82 -12 407 -7 l395 8 24
-50 23 -50 -20 -39 c-24 -47 -66 -88 -107 -105 -21 -9 -127 -14 -366 -17
l-336 -4 -12 79 c-7 43 -17 97 -23 120 -9 39 -11 40 -27 24 -13 -13 -19 -36
-20 -82 -3 -121 -15 -141 -25 -42 -31 308 -112 548 -280 833 -183 310 -447
560 -751 713 -238 119 -324 148 -494 171 l-85 11 -33 56 c-17 31 -49 69 -69
84 -82 62 -221 89 -319 60z m196 -158 c24 -13 58 -43 74 -66 27 -38 30 -51 30
-114 0 -61 -4 -80 -28 -119 -85 -146 -263 -140 -355 12 -30 50 -33 60 -29 113
6 69 38 123 99 167 35 26 50 30 103 30 45 0 74 -6 106 -23z m-449 -309 c11
-16 19 -30 17 -32 -2 -2 -33 -9 -69 -15 -241 -46 -502 -182 -712 -371 -77 -69
-230 -247 -287 -334 -113 -173 -233 -473 -266 -660 -9 -56 -15 -156 -16 -275
0 -102 -4 -209 -8 -237 -6 -45 1 -168 12 -214 13 -53 21 -80 34 -120 27 -83
165 -354 224 -440 70 -103 223 -265 240 -254 7 4 9 3 6 -3 -7 -12 85 -95 153
-138 27 -16 95 -62 152 -100 59 -41 150 -90 213 -117 61 -26 126 -53 145 -62
61 -25 7 -17 -82 13 -245 83 -456 213 -644 398 -260 255 -386 462 -489 805
-46 153 -65 282 -65 445 0 330 88 667 249 948 66 115 121 185 251 316 140 140
301 257 465 337 182 89 240 110 355 127 103 15 99 15 122 -17z m922 -32 c55
-20 114 -45 133 -56 19 -11 40 -20 47 -20 35 0 220 -112 266 -160 3 -3 25 -21
50 -40 92 -72 278 -265 307 -320 17 -30 50 -91 73 -135 135 -248 183 -367 201
-502 4 -33 17 -100 29 -148 19 -80 21 -106 15 -319 -9 -371 -17 -431 -81 -602
-71 -190 -162 -341 -308 -511 -225 -261 -435 -405 -766 -524 -58 -20 -112 -40
-122 -44 -14 -6 -17 3 -20 59 -1 36 0 66 5 66 4 0 7 -8 8 -17 1 -26 7 -54 12
-60 7 -7 87 18 125 39 18 10 41 18 52 18 11 0 20 7 20 15 0 9 6 12 15 9 8 -4
15 -1 15 5 0 6 8 11 18 11 14 0 15 2 2 10 -13 8 -12 10 3 10 23 0 54 18 97 55
19 17 28 21 20 11 -15 -19 -15 -19 17 -1 18 10 29 23 26 29 -4 5 0 7 10 3 10
-4 18 1 22 14 4 10 11 19 16 19 5 0 9 7 9 15 0 21 51 75 75 79 11 2 19 8 18
14 -1 5 7 8 17 5 14 -4 30 6 55 32 19 21 32 42 29 47 -3 4 2 8 10 8 9 0 16 5
16 10 0 6 7 10 16 10 8 0 13 4 9 9 -3 6 3 14 12 20 10 6 14 11 10 11 -5 0 18
29 51 65 133 146 265 377 335 588 56 167 93 449 82 622 -23 344 -101 588 -270
845 -165 250 -362 422 -645 563 -152 76 -260 117 -310 117 -37 0 -44 13 -26
48 14 27 17 29 58 22 24 -5 88 -24 142 -44z m-341 -231 c199 -29 348 -92 534
-222 122 -86 156 -115 255 -221 167 -178 287 -419 345 -692 27 -128 25 -431
-5 -558 -69 -299 -194 -527 -401 -732 -152 -151 -307 -251 -495 -319 l-106
-39 0 251 c0 234 1 254 21 294 14 30 33 50 60 63 43 23 99 27 99 8 0 -24 84
-111 124 -129 85 -39 184 -15 247 60 56 65 75 160 44 226 -12 28 -13 28 -14 6
-1 -21 -5 -18 -45 26 -24 27 -60 58 -80 68 -26 14 -34 24 -30 37 5 16 -1 18
-43 18 -87 0 -186 -75 -202 -154 -6 -28 -11 -31 -46 -34 -105 -6 -159 -39
-210 -126 -32 -55 -34 -72 -40 -376 -3 -145 -8 -266 -10 -268 -3 -3 -31 7 -64
22 -32 14 -68 26 -79 26 -12 0 -26 9 -32 19 -6 13 -10 154 -10 390 0 344 1
370 18 374 9 3 50 13 91 22 194 46 358 236 412 478 9 43 16 56 27 52 7 -3 50
-5 95 -5 l82 0 25 -53 c54 -112 176 -149 291 -89 74 38 119 111 119 192 0 32
-4 50 -8 42 -6 -9 -14 0 -27 28 -23 51 -68 91 -129 116 -28 11 -44 24 -41 32
6 17 -57 16 -103 -3 -53 -23 -81 -52 -109 -114 -24 -53 -24 -53 -61 -47 -20 3
-62 6 -93 6 l-57 0 -7 47 c-4 26 -14 64 -22 86 l-16 38 -15 -23 c-38 -54 -52
-56 -52 -5 0 17 12 44 29 66 15 20 35 50 44 66 8 17 38 53 66 82 l50 51 75 4
c64 3 81 8 118 33 62 44 100 103 106 165 3 37 1 50 -8 48 -7 -2 -20 16 -28 40
-27 71 -59 101 -136 127 l-70 23 35 10 34 10 -48 1 c-60 1 -105 -17 -146 -60
-53 -55 -73 -110 -69 -191 2 -61 0 -71 -17 -80 -11 -6 -49 -38 -85 -71 -85
-78 -104 -85 -155 -58 -22 12 -62 29 -90 39 -37 13 -51 23 -53 40 -2 12 -8 22
-14 22 -7 0 -7 5 1 14 13 15 -4 26 -40 26 -18 0 -19 8 -19 104 0 98 1 105 21
111 37 12 101 78 125 130 26 54 33 118 12 97 -19 -19 -26 -15 -52 36 -31 60
-79 106 -134 127 -34 14 -40 20 -31 31 19 23 -29 17 -86 -10 -88 -41 -137
-116 -137 -207 0 -78 55 -164 127 -198 l46 -21 -3 -97 -3 -96 -70 -22 c-96
-30 -160 -64 -234 -125 -101 -85 -183 -215 -217 -343 l-18 -67 -76 0 c-41 0
-85 -3 -97 -6 -16 -4 -23 -2 -23 8 0 8 -7 23 -16 34 -15 18 -15 18 -5 -3 27
-54 0 -59 -28 -5 -23 45 -52 72 -111 106 -31 18 -39 26 -25 26 19 1 19 1 1 11
-52 31 -171 -19 -222 -92 -25 -36 -29 -53 -32 -118 -3 -71 -1 -80 30 -131 94
-155 313 -134 385 38 l13 32 100 0 c72 0 102 -4 104 -12 2 -7 11 -46 20 -87
19 -86 71 -194 129 -270 72 -94 196 -158 340 -176 l57 -7 0 -387 c0 -212 -4
-391 -8 -396 -4 -6 -29 -18 -57 -27 -27 -9 -64 -22 -82 -29 -18 -7 -36 -10
-40 -5 -4 4 -10 139 -13 299 -4 260 -7 296 -24 327 -46 88 -128 143 -214 144
-53 1 -54 1 -67 40 -16 46 -42 76 -31 36 4 -14 9 -38 11 -55 5 -27 4 -26 -14
10 -24 51 -66 90 -128 121 l-48 23 40 2 c35 1 37 2 15 9 -45 14 -110 10 -148
-9 -77 -39 -142 -134 -142 -207 0 -43 32 -126 62 -160 17 -19 48 -44 69 -55
47 -23 135 -25 187 -3 45 18 97 67 113 105 10 26 16 29 56 29 54 0 84 -19 123
-78 l30 -45 0 -280 0 -279 -46 7 c-55 8 -81 22 -87 47 -3 11 -18 21 -36 24
-17 4 -31 10 -31 15 0 5 -5 9 -10 9 -6 0 -20 9 -32 20 -12 11 -28 20 -35 20
-7 0 -13 5 -13 10 0 6 -7 10 -15 10 -8 0 -15 5 -15 11 0 5 -4 7 -10 4 -5 -3
-10 -2 -10 2 0 5 -14 14 -31 20 -17 7 -28 16 -25 21 6 11 -27 24 -61 24 -13 1
-23 5 -23 10 0 6 -7 8 -15 4 -10 -4 -15 1 -15 14 0 11 5 20 11 20 5 0 7 5 3
12 -6 9 -9 9 -12 -1 -3 -8 -9 -6 -18 8 -20 27 -49 23 -51 -7 0 -14 2 -21 5
-16 12 16 47 10 50 -9 3 -17 1 -17 -20 -6 -21 11 -22 11 -9 -4 7 -10 9 -17 4
-17 -13 0 -134 125 -128 133 3 4 2 5 -2 2 -10 -8 -33 16 -26 29 3 6 2 8 -2 3
-9 -8 -75 50 -75 66 0 6 -8 15 -17 22 -20 15 -26 55 -6 48 10 -4 10 1 2 26
-13 35 -24 43 -14 9 7 -23 7 -23 -9 -3 -11 15 -18 17 -24 8 -26 -39 -182 268
-227 446 -9 35 -14 66 -11 69 3 3 6 -3 6 -14 0 -13 6 -8 17 15 10 20 19 29 21
21 3 -8 0 -16 -6 -18 -7 -2 -12 -11 -11 -20 0 -11 2 -12 6 -4 2 6 9 10 13 7 5
-3 7 -12 4 -19 -3 -8 -1 -17 5 -21 6 -3 11 -17 11 -31 0 -13 4 -24 9 -24 5 0
5 16 0 38 -34 138 -63 418 -52 502 29 221 79 398 156 551 80 159 120 214 252
345 209 207 428 336 667 393 118 28 115 28 311 30 113 1 214 -4 280 -14z
m-189 -274 c81 -54 70 -152 -20 -181 -44 -15 -83 -1 -120 43 -33 40 -27 80 21
125 40 37 76 41 119 13z m736 -316 c88 -46 76 -159 -19 -185 -22 -6 -45 -8
-52 -5 -8 3 -20 -5 -28 -17 -7 -12 -59 -74 -115 -137 -56 -64 -123 -146 -150
-183 -41 -59 -415 -457 -438 -466 -11 -5 -288 268 -288 282 1 12 85 66 103 66
6 0 48 -39 93 -87 l81 -88 49 55 c26 30 118 127 204 215 86 88 172 181 192
206 45 56 116 125 181 174 32 25 47 43 47 59 0 43 23 88 54 107 37 23 48 23
86 4z m-3824 -264 c36 -22 68 -83 60 -115 -3 -12 -16 -38 -29 -57 -26 -40 -58
-47 -124 -28 -50 14 -73 40 -73 84 0 24 -2 27 -11 15 -14 -20 -2 25 17 62 30
58 100 75 160 39z m6215 -8 c27 -27 40 -87 27 -124 -5 -16 -13 -29 -17 -29 -4
0 -13 -11 -19 -24 -22 -49 -121 -39 -167 16 -24 28 -27 39 -22 82 4 40 11 55
37 79 30 26 38 29 87 25 37 -3 61 -11 74 -25z m-194 -167 c24 -27 83 -56 114
-56 11 0 19 -4 19 -10 0 -5 -20 -10 -44 -10 -34 0 -52 7 -77 27 -34 29 -59 79
-58 115 0 19 2 18 12 -9 7 -17 22 -43 34 -57z m-2862 10 c97 -46 96 -44 20
-114 -38 -34 -73 -62 -80 -62 -26 0 -46 165 -23 188 17 17 26 15 83 -12z
m-3331 -1 c8 -22 84 -54 126 -55 26 0 31 -3 20 -10 -19 -12 -72 -13 -104 0
-32 12 -66 45 -66 65 0 20 16 19 24 0z m1157 -34 c3 -3 -1 -58 -11 -121 l-16
-115 -320 0 c-221 0 -332 4 -360 13 -53 16 -100 48 -137 94 l-30 37 31 35 c16
19 33 44 37 54 6 20 14 20 403 15 218 -3 400 -8 403 -12z m1105 -255 c19 -19
34 -44 34 -55 0 -31 -36 -98 -59 -111 -51 -27 -116 1 -141 59 -16 39 -6 76 30
112 41 42 91 40 136 -5z m2022 -11 c41 -44 42 -79 2 -127 -49 -60 -118 -59
-161 2 -33 48 -32 76 3 116 56 64 101 67 156 9z m-1423 -365 l20 -25 -22 19
c-13 11 -23 24 -23 29 0 6 1 8 3 6 1 -2 11 -15 22 -29z m-2681 -215 c31 -28
56 -82 56 -119 0 -16 -15 -41 -40 -67 -35 -37 -43 -41 -71 -35 -17 3 -40 6
-50 6 -10 0 -35 14 -55 32 -35 31 -36 34 -32 87 4 47 10 59 41 88 48 43 110
46 151 8z m6188 5 c14 -11 33 -38 42 -61 14 -34 15 -48 5 -78 -18 -58 -46 -81
-95 -81 -63 0 -91 17 -108 64 -28 79 -28 92 1 126 44 53 110 66 155 30z
m-3856 -126 c41 -42 44 -77 11 -125 -32 -47 -64 -61 -111 -48 -76 21 -99 112
-45 174 26 29 38 35 71 35 34 0 47 -6 74 -36z m1523 1 c51 -58 50 -95 -2 -152
-43 -48 -118 -34 -157 30 -46 75 -1 156 86 157 36 0 47 -5 73 -35z m2160 -53
c19 -36 70 -62 121 -62 33 0 41 -3 32 -12 -15 -15 -91 -15 -120 1 -30 16 -62
85 -61 131 l1 35 7 -35 c4 -19 13 -45 20 -58z m-6212 -1 c12 -33 49 -60 96
-71 l32 -8 -37 -1 c-44 -1 -91 34 -107 79 -13 39 1 39 16 1z m2323 -461 c0 -5
-4 -10 -10 -10 -5 0 -10 5 -10 10 0 6 5 10 10 10 6 0 10 -4 10 -10z m1010
-381 c104 -47 152 -138 129 -246 -27 -133 -177 -217 -297 -167 -127 52 -178
196 -112 311 62 108 176 149 280 102z"/>
<path d="M5141 8344 c-25 -21 -31 -34 -31 -64 0 -69 78 -131 144 -114 14 3 40
22 57 42 26 29 30 41 25 70 -7 44 -30 69 -75 82 -57 16 -87 12 -120 -16z"/>
<path d="M4355 7416 c-41 -18 -101 -83 -120 -128 -68 -164 94 -354 263 -309
45 13 114 61 145 103 23 31 36 101 26 138 -4 14 -7 18 -8 10 -1 -8 -19 15 -41
51 -43 72 -65 91 -128 110 -47 14 -54 25 -19 32 12 2 -3 5 -33 5 -30 1 -68 -5
-85 -12z m152 -132 c33 -21 55 -70 48 -103 -3 -16 -19 -41 -36 -57 -43 -41
-102 -39 -141 5 -38 43 -45 77 -23 117 32 59 95 75 152 38z"/>
<path d="M3900 5871 c0 -9 27 -41 35 -41 2 0 -2 11 -8 25 -12 25 -27 34 -27
16z"/>
<path d="M4065 5610 c-3 -5 -3 -10 1 -10 4 0 -1 -9 -10 -19 -17 -19 -17 -20 2
-30 12 -6 28 -8 36 -5 9 3 16 1 16 -5 0 -6 -3 -10 -7 -8 -5 1 -10 -2 -13 -7
-3 -5 2 -10 10 -11 25 -4 21 34 -6 62 -13 13 -22 29 -19 34 4 5 4 9 1 9 -3 0
-8 -4 -11 -10z m25 -52 c0 -6 -6 -5 -15 2 -8 7 -15 14 -15 16 0 2 7 1 15 -2 8
-4 15 -11 15 -16z"/>
<path d="M4133 5535 c0 -8 4 -12 9 -9 5 3 6 10 3 15 -9 13 -12 11 -12 -6z"/>
<path d="M4274 5399 c1 -7 10 -13 19 -15 9 -1 15 2 11 7 -3 5 -9 7 -14 4 -4
-3 -11 0 -13 5 -3 6 -4 5 -3 -1z"/>
<path d="M4216 5385 c4 -8 11 -15 16 -15 6 0 5 6 -2 15 -7 8 -14 15 -16 15 -2
0 -1 -7 2 -15z"/>
<path d="M5147 4860 c-67 -53 -48 -163 35 -206 48 -25 84 -18 133 27 73 68 70
132 -8 179 -44 27 -125 27 -160 0z"/>
<path d="M7180 6845 c0 -5 5 -17 10 -25 5 -8 10 -10 10 -5 0 6 -5 17 -10 25
-5 8 -10 11 -10 5z"/>
<path d="M8534 4326 c-45 -20 -109 -81 -124 -116 -19 -46 -9 -141 20 -183 38
-56 72 -71 146 -64 116 11 183 66 192 157 5 59 -10 89 -80 158 -61 59 -102 72
-154 48z m92 -36 c8 0 32 -28 54 -62 51 -79 55 -131 11 -180 l-29 -33 -7 30
c-4 17 -11 42 -17 56 -8 22 -5 31 16 54 30 32 32 47 10 69 -22 22 -57 29 -108
22 l-44 -7 3 -87 c4 -130 4 -132 15 -132 6 0 10 8 10 18 1 24 40 71 46 55 3
-7 16 -28 30 -48 l24 -36 -25 -11 c-17 -8 -40 -8 -73 -2 -41 8 -49 14 -65 46
-22 45 -32 99 -23 131 15 60 104 135 144 121 8 -2 20 -4 28 -4z m-16 -94 c0
-17 -7 -26 -26 -30 -33 -9 -38 -4 -30 29 9 35 56 36 56 1z"/>
<path d="M4451 3606 l-2 -526 107 0 107 0 -7 105 -7 105 43 48 42 48 46 -62
c25 -34 79 -102 120 -152 l75 -91 133 0 133 -1 -69 78 c-135 148 -261 297
-273 319 -11 20 -1 33 131 172 79 83 147 151 152 151 4 0 8 5 8 10 0 6 -51 10
-133 10 -122 0 -135 -2 -143 -19 -5 -11 -55 -67 -111 -124 -56 -58 -109 -117
-118 -131 -10 -14 -21 -26 -26 -26 -12 0 -11 252 1 445 5 82 8 150 7 151 -1 1
-50 5 -108 9 l-107 7 -1 -526z"/>
<path d="M7932 3603 l-3 -523 111 0 110 0 0 109 c0 87 3 110 15 115 8 3 23 19
33 35 l18 30 53 -77 c29 -42 73 -106 98 -142 l45 -65 132 -5 c72 -3 133 -4
135 -3 5 3 -60 90 -159 213 -42 52 -93 118 -113 146 l-36 50 66 75 c36 41 101
116 144 167 l80 92 -103 0 c-57 0 -113 3 -125 6 -15 4 -27 -1 -40 -16 -10 -12
-53 -63 -97 -114 -43 -50 -94 -113 -113 -141 l-35 -50 5 311 4 312 -111 -1
-111 -2 -3 -522z"/>
<path d="M2378 4103 l-67 -4 -12 -42 c-6 -23 -47 -161 -91 -307 -44 -146 -85
-283 -90 -305 -15 -57 -24 -62 -31 -18 -4 21 -37 142 -73 268 -37 127 -76 269
-88 317 l-21 88 -129 0 c-118 0 -128 -1 -121 -17 53 -125 297 -859 321 -966
l9 -39 109 0 110 0 27 99 c14 54 47 166 72 248 25 83 53 179 63 213 10 38 20
58 24 50 4 -7 49 -147 101 -310 l93 -298 103 0 103 0 6 28 c20 93 268 832 329
985 7 16 -2 17 -112 16 l-120 -1 -42 -132 c-67 -217 -158 -519 -166 -555 -7
-33 -9 -30 -30 55 -13 49 -31 109 -40 134 -29 80 -105 358 -117 430 -11 61
-15 70 -33 68 -11 -1 -50 -3 -87 -5z"/>
<path d="M5408 4102 l-337 -2 1 -100 1 -99 174 6 173 6 0 -416 0 -417 110 0
109 0 -6 308 c-3 169 -3 356 2 416 l7 109 139 -6 139 -6 0 100 0 99 -74 0
c-41 0 -80 1 -88 3 -7 1 -165 1 -350 -1z"/>
<path d="M3285 3823 c-114 -41 -199 -113 -246 -211 -19 -39 -23 -64 -24 -142
0 -87 3 -101 32 -163 39 -83 119 -169 187 -202 200 -97 432 -13 533 193 36 72
38 81 38 171 0 88 -3 101 -30 150 -36 66 -131 153 -204 188 -74 35 -210 43
-286 16z m205 -185 c26 -14 57 -41 75 -66 26 -38 30 -52 30 -110 -2 -158 -121
-251 -252 -197 -52 22 -72 42 -99 100 -41 87 -30 171 29 234 61 64 139 78 217
39z"/>
<path d="M6669 3830 c-67 -11 -199 -60 -206 -77 -3 -9 44 -90 82 -141 1 -2 20
7 40 20 54 31 194 38 244 11 41 -21 67 -56 76 -99 l6 -31 -124 5 c-139 5 -201
-7 -275 -55 -60 -39 -97 -115 -89 -184 8 -68 53 -146 101 -178 36 -23 49 -26
135 -26 104 0 157 17 212 69 l27 25 6 -22 c3 -12 6 -32 6 -44 0 -21 5 -22 100
-25 95 -3 99 -2 95 17 -2 11 -7 137 -10 280 -7 284 -9 294 -75 368 -63 72
-212 109 -351 87z m225 -460 c15 -15 -5 -67 -40 -101 -34 -33 -38 -34 -110
-34 -67 0 -78 3 -95 24 -43 52 -11 111 67 122 55 8 165 1 178 -11z"/>
<path d="M7462 3825 c-35 -8 -83 -25 -106 -39 -49 -29 -127 -109 -151 -157
-99 -191 -21 -424 176 -525 45 -23 70 -28 149 -32 122 -5 176 14 282 100 l77
62 -52 29 c-29 15 -65 41 -82 57 l-30 28 -19 -25 c-25 -34 -91 -63 -146 -63
-87 0 -156 61 -180 159 -28 120 64 241 185 241 40 0 156 -47 169 -69 5 -7 27
12 57 48 27 33 59 63 69 66 33 10 23 22 -52 63 -130 71 -215 85 -346 57z"/>
<path d="M4246 3823 c-23 -6 -96 -53 -96 -62 -1 -3 -12 -19 -26 -36 l-25 -30
6 63 7 62 -117 0 -118 0 7 -46 c3 -26 6 -192 6 -370 l0 -324 105 0 105 0 0
188 c0 225 10 271 69 325 42 38 105 55 161 44 27 -6 29 -4 35 36 4 23 16 64
26 91 10 28 16 52 13 55 -7 8 -135 11 -158 4z"/>
<path d="M5933 3632 c4 -108 7 -275 7 -374 l0 -178 108 0 107 0 0 213 c0 208
1 213 25 256 35 63 71 86 130 86 l50 0 21 51 c11 29 31 62 45 75 13 12 24 29
24 36 0 20 -43 33 -106 33 -63 0 -126 -31 -169 -82 l-25 -30 0 54 0 54 -112 0
-111 0 6 -194z"/>
<path d="M3617 2854 c-4 -4 -7 -13 -7 -21 0 -7 -7 -30 -15 -51 l-16 -37 -31
48 -31 48 -17 -29 c-10 -16 -21 -38 -24 -50 -10 -31 -22 -20 -35 32 -7 31 -18
47 -32 51 -11 4 -23 4 -26 2 -7 -8 44 -159 62 -183 17 -24 28 -14 60 52 l23
48 7 -39 c3 -22 7 -47 8 -55 1 -8 9 -15 17 -15 17 0 102 161 98 185 -3 16 -30
25 -41 14z"/>
<path d="M3767 2839 c-26 -15 -59 -86 -51 -112 11 -37 54 -87 75 -87 30 0 74
26 93 54 52 81 -36 192 -117 145z m83 -65 c13 -34 13 -47 -3 -69 -10 -13 -21
-16 -41 -11 -61 15 -57 106 4 106 24 0 33 -6 40 -26z"/>
<path d="M3992 2750 c0 -75 3 -100 13 -100 14 0 25 22 25 51 0 29 16 23 39
-15 37 -59 85 -60 50 -1 l-20 34 21 29 c18 24 20 34 11 50 -18 34 -52 52 -97
52 l-42 0 0 -100z m93 40 c0 -20 -6 -26 -27 -28 -25 -3 -28 0 -28 28 0 28 3
31 28 28 21 -2 27 -8 27 -28z"/>
<path d="M4230 2766 c0 -46 3 -91 6 -100 10 -27 34 -19 34 12 0 52 14 55 49
12 17 -22 41 -40 51 -40 27 0 25 5 -15 53 -19 22 -35 49 -35 58 0 10 16 31 35
46 39 31 44 43 18 43 -9 0 -34 -17 -55 -37 -32 -31 -40 -35 -48 -23 -5 8 -10
25 -10 38 0 13 -6 22 -15 22 -12 0 -15 -16 -15 -84z"/>
<path d="M4476 2776 c-7 -76 -1 -126 15 -126 5 0 9 11 9 24 0 45 10 56 51 56
28 0 39 4 39 15 0 11 -11 15 -41 15 -36 0 -40 2 -37 23 2 17 10 23 40 25 20 2
39 10 42 18 4 11 -4 14 -38 14 -25 0 -51 2 -59 6 -11 4 -16 -11 -21 -70z"/>
<path d="M4696 2843 c-3 -3 -6 -48 -6 -100 l0 -93 55 0 c48 0 55 2 55 20 0 17
-7 20 -40 20 -34 0 -40 4 -46 26 -4 14 -4 47 0 74 6 45 -2 69 -18 53z"/>
<path d="M4926 2829 c-37 -29 -60 -83 -46 -108 17 -33 71 -71 100 -71 19 0 37
11 59 35 37 43 40 79 8 126 -29 44 -79 51 -121 18z m82 -32 c6 -6 13 -24 17
-40 8 -32 -16 -77 -42 -77 -26 0 -63 41 -63 68 0 49 61 82 88 49z"/>
<path d="M5130 2847 c0 -17 91 -197 99 -197 13 0 31 33 46 85 l12 40 13 -58
c10 -43 17 -57 29 -55 18 4 63 109 65 152 2 44 -21 43 -29 -1 -3 -21 -12 -49
-19 -62 l-13 -23 -6 28 c-4 16 -20 45 -37 64 l-30 34 0 -26 c0 -15 -4 -37 -9
-50 -5 -13 -12 -32 -16 -43 -5 -16 -13 -8 -43 44 -20 36 -43 66 -50 69 -6 2
-12 1 -12 -1z"/>
<path d="M5640 2825 c0 -21 5 -25 30 -25 l29 0 3 -72 c2 -46 7 -73 16 -76 9
-3 12 16 12 72 l0 76 30 0 c23 0 30 5 30 19 0 15 -10 19 -52 25 -90 10 -98 9
-98 -19z"/>
<path d="M5873 2834 c-2 -6 -3 -48 -1 -95 2 -69 6 -84 20 -87 13 -2 17 5 20
35 l3 38 41 -38 c50 -45 70 -48 47 -8 -16 27 -16 31 1 70 17 37 18 42 3 65
-13 20 -26 25 -73 28 -34 2 -58 -1 -61 -8z m81 -34 c44 -16 27 -61 -20 -52
-17 3 -24 11 -24 26 0 20 7 36 16 36 1 0 14 -4 28 -10z"/>
<path d="M6152 2765 c-36 -96 -39 -115 -17 -115 8 0 15 7 15 15 0 17 30 35 57
35 11 0 29 -13 41 -30 13 -16 29 -30 37 -30 13 0 13 5 -1 38 -9 20 -29 66 -44
102 -15 36 -33 66 -41 68 -10 2 -25 -25 -47 -83z m66 -9 c13 -28 7 -36 -25
-36 -27 0 -27 1 -11 35 14 31 22 32 36 1z"/>
<path d="M6406 2820 c-20 -18 -39 -42 -42 -55 -11 -43 52 -125 97 -125 25 0
74 44 65 58 -9 15 -36 16 -36 1 0 -20 -53 -4 -73 23 -19 26 -19 28 -2 54 15
24 21 26 61 20 71 -9 69 36 -2 50 -26 5 -38 0 -68 -26z"/>
<path d="M6721 2815 c-47 -43 -61 -44 -61 -4 0 20 -4 29 -12 27 -14 -5 -23
-135 -13 -176 8 -31 23 -19 31 23 8 44 17 44 43 1 18 -29 39 -46 57 -46 10 0
1 23 -28 70 l-31 51 36 37 c20 21 37 41 37 45 0 16 -22 5 -59 -28z"/>
<path d="M6887 2844 c-12 -12 -8 -192 4 -199 20 -13 24 6 24 102 0 89 -8 117
-28 97z"/>
<path d="M7040 2750 c0 -82 3 -100 15 -100 12 0 15 13 15 61 0 70 9 70 45 -1
23 -45 57 -71 73 -55 4 4 7 48 7 98 0 79 -2 92 -17 95 -16 3 -18 -5 -18 -57 0
-34 -3 -61 -8 -61 -4 0 -16 17 -27 37 -29 53 -54 83 -71 83 -11 0 -14 -20 -14
-100z"/>
<path d="M7338 2823 c-56 -61 -60 -89 -17 -138 25 -28 38 -35 68 -35 52 0 81
23 81 65 0 36 -11 44 -47 37 -26 -5 -32 -32 -7 -32 21 0 12 -24 -10 -28 -10
-2 -28 -1 -42 2 -20 5 -24 13 -24 45 0 53 26 75 79 66 34 -6 41 -4 41 9 0 18
-38 36 -74 36 -12 0 -34 -12 -48 -27z"/>
<path d="M2578 2750 c-262 -3 -479 -8 -483 -11 -13 -13 133 -18 589 -21 390
-3 470 -1 474 11 7 20 -18 31 -63 29 -22 -1 -255 -5 -517 -8z"/>
<path d="M7710 2737 c0 -22 2 -22 97 -16 54 4 231 7 392 8 169 1 291 5 285 10
-5 5 -181 11 -391 14 l-383 6 0 -22z"/>
<path d="M4982 1864 c-12 -3 -34 -11 -47 -18 -24 -13 -23 -14 32 -24 32 -6 66
-11 76 -12 44 -6 249 -4 307 2 36 4 72 7 80 8 10 1 9 4 -5 10 l-20 9 20 1 c17
1 17 3 -5 12 -26 11 -397 21 -438 12z"/>
</g>
</svg>
